<?xml version="1.0" encoding="iso-8859-1"?>
<!-- Generator: Adobe Illustrator 19.0.0, SVG Export Plug-In . SVG Version: 6.00 Build 0)  -->
<svg version="1.1" id="Layer_1" xmlns="http://www.w3.org/2000/svg" xmlns:xlink="http://www.w3.org/1999/xlink" x="0px" y="0px"
	 viewBox="0 0 512 512" style="enable-background:new 0 0 512 512;" xml:space="preserve">
<g>
	<g>
		<path d="M480.32,89.653c-41.613-49.599-118.853-74.749-229.579-74.749c-0.645,0-2.604,0-97.418,9.696
			c-3.819,0.386-7.04,3.004-8.207,6.658L0.458,484.519c-1.225,3.833,0.061,8.024,3.221,10.51c1.742,1.37,3.852,2.067,5.966,2.067
			c1.728,0,3.466-0.461,5.01-1.403l457.818-278.282c0.023,0,0.045,0.013,0.068,0.013c0.306,0,0.612-0.014,0.923-0.042
			c3.308-0.314,5.913-2.358,7.399-5.07l25.629-15.578c2.369-1.441,4.003-3.833,4.488-6.564
			C511.361,188.013,519.851,136.77,480.32,89.653z M136.583,121.431c20.605,2.144,37.008,14.258,37.008,28.487
			c0,15.681-19.872,28.932-43.397,28.932c-3.971,0-7.805-0.477-11.556-1.188L136.583,121.431z M110.146,415.077
			c-0.065-0.031-0.102-0.089-0.169-0.118c-14.301-6.183-23.182-17.206-23.182-28.767c0-18.294,22.08-33.754,48.219-33.754
			c19.377,0,36.692,8.306,44.247,20.628L110.146,415.077z M195.762,363.036c-11.081-18.128-34.367-29.885-60.747-29.885
			c-37.224,0-67.507,23.794-67.507,53.041c0,15.763,8.934,30.4,23.786,40.344l-64.622,39.279l86.102-269.786
			c5.65,1.248,11.43,2.107,17.418,2.107c34.563,0,62.685-21.633,62.685-48.219c0-23.326-21.649-42.83-50.302-47.266l6.622-20.749
			c1.222-0.19,2.663-0.423,4.751-0.769c13.875-2.295,26.891-3.995,39.495-5.422c-0.336,2.214-0.566,4.444-0.566,6.698
			c0,31.908,34.611,57.863,77.151,57.863s77.151-25.955,77.151-57.863c0-0.254-0.059-0.504-0.062-0.759
			c29.811,7.747,50.94,18.972,65.568,30.232c27.588,21.236,44.032,51.346,49.238,89.371L195.762,363.036z M212.166,82.41
			c0-2.958,0.691-5.866,1.719-8.726c46.289-3.813,83.59-1.853,113.413,3.565c0.356,1.708,0.595,3.429,0.595,5.161
			c0,20.912-26.497,38.575-57.863,38.575C238.663,120.986,212.166,103.323,212.166,82.41z M492.417,182.72l-12.553,7.631
			c-7.098-39.362-25.674-70.856-55.416-93.752c-38.462-29.612-116.327-59.482-268.698-35.224l5.818-18.232
			c36.395-3.715,86.281-8.763,89.173-8.952c104.491,0,176.669,22.72,214.533,67.535C493.147,134.722,493.279,170.764,492.417,182.72
			z"/>
	</g>
</g>
<g>
	<g>
		<path d="M247.916,172.031c-3.767-3.767-9.87-3.767-13.637,0l-9.644,9.644c-3.767,3.767-3.767,9.87,0,13.637
			c1.883,1.884,4.351,2.825,6.818,2.825c2.467,0,4.935-0.942,6.818-2.825l9.644-9.644
			C251.683,181.9,251.683,175.798,247.916,172.031z"/>
	</g>
</g>
<g>
	<g>
		<path d="M260.385,72.767c-5.326,0-9.644,4.318-9.644,9.644v19.288c0,5.326,4.318,9.644,9.644,9.644
			c5.326,0,9.644-4.318,9.644-9.644V82.41C270.029,77.085,265.711,72.767,260.385,72.767z"/>
	</g>
</g>
<g>
	<g>
		<path d="M327.398,243.305l-9.644-28.932c-1.681-5.048-7.125-7.803-12.201-6.098c-5.053,1.686-7.784,7.148-6.098,12.201
			l9.644,28.932c1.347,4.04,5.109,6.597,9.149,6.597c1.008,0,2.039-0.16,3.051-0.499
			C326.352,253.82,329.083,248.357,327.398,243.305z"/>
	</g>
</g>
<g>
	<g>
		<path d="M115.727,265.644c-5.326,0-9.644,4.318-9.644,9.644v19.288c0,5.326,4.318,9.644,9.644,9.644
			c5.326,0,9.644-4.318,9.644-9.644v-19.288C125.371,269.962,121.053,265.644,115.727,265.644z"/>
	</g>
</g>
<g>
	<g>
		<path d="M125.371,362.083c-5.326,0-9.644,4.318-9.644,9.644v9.644c0,5.326,4.318,9.644,9.644,9.644s9.644-4.318,9.644-9.644
			v-9.644C135.015,366.401,130.697,362.083,125.371,362.083z"/>
	</g>
</g>
<g>
	<g>
		<path d="M221.81,256c-12.526,0-19.288,9.936-19.288,19.288c0,5.326,4.318,9.644,9.644,9.644c5.326,0,9.644-4.318,9.644-9.644
			c5.326,0,9.644-4.318,9.644-9.644S227.136,256,221.81,256z"/>
	</g>
</g>
<g>
	<g>
		<path d="M221.81,207.781c-42.54,0-77.151,25.956-77.151,57.863c0,31.908,34.611,57.863,77.151,57.863
			c42.54,0,77.151-25.955,77.151-57.863C298.961,233.736,264.35,207.781,221.81,207.781z M221.81,304.219
			c-31.366,0-57.863-17.663-57.863-38.575s26.497-38.575,57.863-38.575c31.366,0,57.863,17.663,57.863,38.575
			S253.176,304.219,221.81,304.219z"/>
	</g>
</g>
<g>
	<g>
		<path d="M371.29,130.63c-34.563,0-62.685,21.633-62.685,48.219c0,26.586,28.122,48.219,62.685,48.219
			c34.563,0,62.685-21.633,62.685-48.219C433.975,152.263,405.853,130.63,371.29,130.63z M371.29,207.781
			c-23.526,0-43.397-13.251-43.397-28.932c0-15.681,19.872-28.932,43.397-28.932c23.526,0,43.397,13.251,43.397,28.932
			C414.687,194.53,394.815,207.781,371.29,207.781z"/>
	</g>
</g>
<g>
</g>
<g>
</g>
<g>
</g>
<g>
</g>
<g>
</g>
<g>
</g>
<g>
</g>
<g>
</g>
<g>
</g>
<g>
</g>
<g>
</g>
<g>
</g>
<g>
</g>
<g>
</g>
<g>
</g>
</svg>
